# xmcd CD database file
#
# Track frame offsets:
#	150
#	4390
#	13623
#	19941
#	42320
#	50216
#	59711
#	70184
#	96850
#	113981
#	126319
#	141394
#	155342
#	169044
#	180878
#	197849
#	211013
#	221095
#	233033
#	250491
#	259571
#	273217
#
# Disc length: 3871 seconds
#
# Revision: 0
# Processed by: cddbd v1.4PL0 Copyright (c) Steve Scherf et al.
# Submitted via: CDex 1.51
#
DISCID=450f1d16
DTITLE=Y'all - Y'allology
DYEAR=2000
DGENRE=Country
TTITLE0=Three Little Old Ladies
TTITLE1=Queen of the Rodeo
TTITLE2=The Egg Man
TTITLE3=Calypso
TTITLE4=Day
TTITLE5=Mamaw
TTITLE6=God Bless New York City
TTITLE7=Gotta Be a Big Man
TTITLE8=Throw Away the Dove
TTITLE9=I Got a Dime
TTITLE10=Doggone Happy
TTITLE11=Fancy Pants
TTITLE12=Are You on the Top 40 of Your Lord?
TTITLE13=Sunnyside, PA
TTITLE14=Cousin Rob
TTITLE15=Every Morning When I Rise
TTITLE16=Cereal Box
TTITLE17=Do It
TTITLE18=Paradise
TTITLE19=My Family Tree
TTITLE20=Leavin' Town
TTITLE21=My Man, Our Horses, and Me
EXTD=YEAR: 2000
EXTT0=
EXTT1=
EXTT2=
EXTT3=
EXTT4=
EXTT5=
EXTT6=
EXTT7=
EXTT8=
EXTT9=
EXTT10=
EXTT11=
EXTT12=
EXTT13=
EXTT14=
EXTT15=
EXTT16=
EXTT17=
EXTT18=
EXTT19=
EXTT20=
EXTT21=
PLAYORDER=
